<?xml version="1.0" encoding="UTF-8"?>
<!DOCTYPE svg PUBLIC "-//W3C//DTD SVG 1.1//EN" "http://www.w3.org/Graphics/SVG/1.1/DTD/svg11.dtd">
<svg xmlns="http://www.w3.org/2000/svg" version="1.1" width="136px" height="145px" style="shape-rendering:geometricPrecision; text-rendering:geometricPrecision; image-rendering:optimizeQuality; fill-rule:evenodd; clip-rule:evenodd" xmlns:xlink="http://www.w3.org/1999/xlink">
<g><path style="opacity:0.92" fill="#063b03" d="M 33.5,-0.5 C 56.8333,-0.5 80.1667,-0.5 103.5,-0.5C 104.742,1.61121 104.742,3.61121 103.5,5.5C 103.714,3.85613 103.38,2.35613 102.5,1C 79.4274,0.178024 56.4274,0.344691 33.5,1.5C 33.5,0.833333 33.5,0.166667 33.5,-0.5 Z"/></g>
<g><path style="opacity:0.998" fill="#0e5b09" d="M 103.5,5.5 C 103.672,6.49162 103.338,7.15829 102.5,7.5C 81.5,7.5 60.5,7.5 39.5,7.5C 39.5,9.5 39.5,11.5 39.5,13.5C 40.7379,56.4413 40.7379,99.108 39.5,141.5C 37.1667,144.167 34.8333,144.167 32.5,141.5C 31.3351,95.3351 31.1685,49.0018 32,2.5C 32.3826,1.94404 32.8826,1.61071 33.5,1.5C 56.4274,0.344691 79.4274,0.178024 102.5,1C 103.38,2.35613 103.714,3.85613 103.5,5.5 Z"/></g>
<g><path style="opacity:0.029" fill="#000000" d="M 102.5,7.5 C 82.0067,8.49721 61.3401,8.83055 40.5,8.5C 40.7845,10.4147 40.4511,12.0813 39.5,13.5C 39.5,11.5 39.5,9.5 39.5,7.5C 60.5,7.5 81.5,7.5 102.5,7.5 Z"/></g>
<g><path style="opacity:1" fill="#7cd656" d="M 18.5,16.5 C 20.0174,16.5106 21.1841,17.1772 22,18.5C 22.6667,54.1667 22.6667,89.8333 22,125.5C 20.3333,128.167 18.6667,128.167 17,125.5C 16.3333,89.8333 16.3333,54.1667 17,18.5C 17.7172,17.9558 18.2172,17.2891 18.5,16.5 Z"/></g>
<g><path style="opacity:1" fill="#72c54f" d="M 49.5,17.5 C 72.5024,17.3334 95.5024,17.5 118.5,18C 121.167,20 121.167,22 118.5,24C 95.5024,24.5 72.5024,24.6666 49.5,24.5C 49.5,22.1667 49.5,19.8333 49.5,17.5 Z"/></g>
<g><path style="opacity:1" fill="#00bb61" d="M 4.5,34.5 C 4.42702,36.0269 5.09368,37.0269 6.5,37.5C 6.66663,61.169 6.49997,84.8357 6,108.5C 4.98052,109.687 3.81386,110.687 2.5,111.5C 1.71237,110.23 0.712371,109.23 -0.5,108.5C -0.5,84.5 -0.5,60.5 -0.5,36.5C 0.819534,35.0582 2.4862,34.3915 4.5,34.5 Z"/></g>
<g><path style="opacity:0.702" fill="#114225" d="M 4.5,34.5 C 5.90632,34.9731 6.57298,35.9731 6.5,37.5C 5.09368,37.0269 4.42702,36.0269 4.5,34.5 Z"/></g>
<g><path style="opacity:1" fill="#01b05b" d="M 135.5,35.5 C 135.5,37.5 135.5,39.5 135.5,41.5C 115.7,62.1356 96.0332,82.9689 76.5,104C 85.6001,115.103 95.4335,125.603 106,135.5C 108.509,138.205 109.009,141.205 107.5,144.5C 105.833,144.5 104.167,144.5 102.5,144.5C 91.2052,132.036 79.7052,119.703 68,107.5C 67.3333,105.5 67.3333,103.5 68,101.5C 86.0331,81.9692 104.2,62.6359 122.5,43.5C 123.043,43.44 123.376,43.1067 123.5,42.5C 98.8423,41.5002 74.1757,41.1669 49.5,41.5C 49.5,39.1667 49.5,36.8333 49.5,34.5C 78.2107,34.1831 106.877,34.5164 135.5,35.5 Z"/></g>
<g><path style="opacity:0.898" fill="#058243" d="M 49.5,41.5 C 74.1757,41.1669 98.8423,41.5002 123.5,42.5C 123.376,43.1067 123.043,43.44 122.5,43.5C 99.6463,42.1822 76.6463,42.1822 53.5,43.5C 51.8295,43.3318 50.4961,42.6651 49.5,41.5 Z"/></g>
<g><path style="opacity:1" fill="#0e4e09" d="M 69.5,48.5 C 72.1873,48.3359 74.854,48.5026 77.5,49C 77.9574,49.414 78.2907,49.914 78.5,50.5C 76.1907,54.4996 73.024,57.4996 69,59.5C 64.3809,55.6348 64.5475,51.9682 69.5,48.5 Z"/></g>
<g><path style="opacity:0.999" fill="#72c54f" d="M 92.5,49.5 C 95.5719,49.1826 98.5719,49.5159 101.5,50.5C 91.6154,61.0957 81.6154,71.5957 71.5,82C 66.9167,82.9337 65.4167,81.1004 67,76.5C 75.507,67.4676 84.007,58.4676 92.5,49.5 Z"/></g>
<g><path style="opacity:1" fill="#0c5a08" d="M 126.5,106.5 C 127.419,109.089 129.086,111.089 131.5,112.5C 134.037,114.632 134.037,116.799 131.5,119C 129.365,119.635 127.365,119.301 125.5,118C 117.698,109.197 109.531,100.697 101,92.5C 98.6209,88.6413 99.6209,85.9746 104,84.5C 111.939,91.2709 119.439,98.6042 126.5,106.5 Z"/></g>
<g><path style="opacity:0.996" fill="#70c14e" d="M 91.5,96.5 C 104.419,108.586 116.919,121.253 129,134.5C 131.442,137.038 131.942,139.872 130.5,143C 129.167,143.667 127.833,143.667 126.5,143C 114,129.833 101.5,116.667 89,103.5C 88.6826,100.793 89.5159,98.4597 91.5,96.5 Z"/></g>
<g><path style="opacity:0.792" fill="#0c2103" d="M 126.5,106.5 C 128.914,107.911 130.581,109.911 131.5,112.5C 129.086,111.089 127.419,109.089 126.5,106.5 Z"/></g>
<g><path style="opacity:0.004" fill="#011400" d="M 32.5,141.5 C 34.8333,144.167 37.1667,144.167 39.5,141.5C 39.4431,142.609 39.1098,143.609 38.5,144.5C 36.8333,144.5 35.1667,144.5 33.5,144.5C 32.8902,143.609 32.5569,142.609 32.5,141.5 Z"/></g>
</svg>
